<svg xmlns="http://www.w3.org/2000/svg" viewBox="0 0 112.63 112.63"><defs><style>.cls-1{fill:#fff;}</style></defs><title>POSP_logo_new</title><g id="Warstwa_2" data-name="Warstwa 2"><g id="Warstwa_1-2" data-name="Warstwa 1"><path class="cls-1" d="M56.32,0a56.32,56.32,0,1,0,56.31,56.31A56.31,56.31,0,0,0,56.32,0Zm29.9,82c-5,8.49-15.38,11.56-23.1,10.69C52.07,91.43,45,81.86,37.83,72.06a79.33,79.33,0,0,1-7.34-12.37C26,50.77,23,44.62,23.83,36.89c.27-2.84.81-8.16,5.08-12.32,3.59-3.51,9.42-5.74,14.51-4.31,3.83,1.07,4.41,3.4,11.29,10.83a90.93,90.93,0,0,0,8.51,8.58c2.44,2.16,4.37,3.64,5.42,4.46,1.93,1.53,2.89,2.29,4.16,3.12,3.48,2.32,5.47,3,8.21,5.51a16.2,16.2,0,0,1,1.92,2C87.7,60.81,91.82,72.43,86.22,82Z"/></g></g></svg>